PathFileType	4	(X/Y/Z)	c:/Users/goper/Files/vsCode/490R/osim_files/C08/C08_SSWS_06.trc
DataRate	CameraRate	NumFrames	NumMarkers	Units                	OrigDataRate	OrigDataStartFrame	OrigNumFrames
250.00	250.00	4	36	mm	250.0	1031	2747
                Frame#	Time	LPSIS			LASIS			LTH1			LTH2			LTH3			LTH4			LLFE			LMFE			LSH1			LSH2			LSH3			LSH4			LLMAL			LMMAL			LCAL			LMTP5			LTOE			LMTP1			RPSIS			RASIS			RTH1			RTH2			RTH3			RTH4			RLFE			RMFE			RSH1			RSH2			RSH3			RSH4			RLMAL			RMMAL			RCAL			RMTP1			RTOE			RMTP5		
		X1	Y1	Z1	X2	Y2	Z2	X3	Y3	Z3	X4	Y4	Z4	X5	Y5	Z5	X6	Y6	Z6	X7	Y7	Z7	X8	Y8	Z8	X9	Y9	Z9	X10	Y10	Z10	X11	Y11	Z11	X12	Y12	Z12	X13	Y13	Z13	X14	Y14	Z14	X15	Y15	Z15	X16	Y16	Z16	X17	Y17	Z17	X18	Y18	Z18	X19	Y19	Z19	X20	Y20	Z20	X21	Y21	Z21	X22	Y22	Z22	X23	Y23	Z23	X24	Y24	Z24	X25	Y25	Z25	X26	Y26	Z26	X27	Y27	Z27	X28	Y28	Z28	X29	Y29	Z29	X30	Y30	Z30	X31	Y31	Z31	X32	Y32	Z32	X33	Y33	Z33	X34	Y34	Z34	X35	Y35	Z35	X36	Y36	Z36

1031	4.12000	1663.86963	1036.84705	164.55154	1462.15234	997.51624	240.04677	1483.54272	725.32184	318.02441	0.00000	0.00000	0.00000	1428.73022	584.21161	291.17050	0.00000	0.00000	0.00000	1418.22107	537.83862	280.11987	1383.55054	535.78711	153.83974	1420.59277	401.62024	284.60205	1401.13342	359.95111	287.18311	1365.02173	424.56326	294.75201	1353.98242	380.43420	293.95349	1290.78748	105.37960	244.03239	1263.41443	125.90820	160.88412	1335.67773	65.26917	182.05002	1163.75525	86.57833	283.89059	1115.50146	137.35959	232.24855	1130.64062	107.87504	175.45366	1664.81567	1038.39465	105.07648	1474.79382	1000.03601	0.85566	1588.53625	748.74774	-54.50116	1606.70166	672.53394	-36.68734	1628.92834	597.53418	-25.94346	1533.32300	660.57959	-9.22388	1647.87012	526.61090	-12.15318	1648.26025	521.07428	114.60008	1731.30676	467.32574	-25.80969	1742.04016	423.48563	-30.84849	0.00000	0.00000	0.00000	0.00000	0.00000	0.00000	1862.83264	143.40034	25.60492	1831.32629	139.97285	113.60065	1925.74585	134.22336	95.97974	1728.07715	49.02299	100.17383	1707.81067	61.64140	44.38571	1766.80591	50.80206	-14.73664
1032	4.12400	1658.49121	1036.44519	165.27420	1456.42139	997.04834	240.64789	1477.83569	724.99579	318.14169	0.00000	0.00000	0.00000	1422.56189	584.07880	291.09665	0.00000	0.00000	0.00000	1412.10193	537.67072	279.98019	1377.77295	535.40302	154.03474	1417.18359	402.20895	285.17984	1396.81812	359.48947	287.07648	1359.90466	423.72662	294.29541	1350.72620	380.32684	293.93741	1290.60449	104.96490	243.70937	1261.90051	124.20157	160.07518	1334.69482	65.36173	181.63435	1162.67395	84.53893	283.98788	1113.96655	134.45189	231.31454	1129.16980	104.82800	174.75722	1660.26501	1038.28247	105.75861	1470.52637	999.72260	0.76477	1583.52222	748.37408	-53.99372	1601.59631	672.09308	-36.33635	1625.06384	597.89563	-26.22811	1528.19348	660.21765	-8.95087	1642.75146	526.15094	-12.06346	1643.97107	520.85278	115.27735	1726.44043	467.52341	-25.73967	1737.61609	423.73901	-30.83889	0.00000	0.00000	0.00000	0.00000	0.00000	0.00000	1861.35999	144.90782	25.33066	1830.64868	140.96182	113.96495	1924.80310	137.47659	95.47736	1728.45264	48.75262	100.56741	1707.82886	61.73866	43.92709	1765.73181	50.05725	-14.73087
1033	4.12800	1653.09094	1036.01221	166.02005	1450.95178	996.48816	241.31181	1471.98743	724.66589	318.17255	1441.72144	651.53979	298.32184	1416.83862	584.35712	290.97418	0.00000	0.00000	0.00000	1405.98486	537.47437	279.94455	1372.41199	535.19727	154.17180	1411.29443	401.31854	284.79770	0.00000	0.00000	0.00000	1355.08972	422.97928	293.83945	1345.05920	378.62491	293.11737	1287.87646	103.02238	243.13817	1260.31042	122.74453	159.51163	1333.77966	65.81023	181.42494	1161.17554	82.31319	283.35373	1111.74048	131.60022	231.04025	1127.63086	102.08381	174.11430	1654.98071	1037.91455	106.53204	1465.38452	999.29303	1.29693	1578.45642	747.98792	-53.52621	1596.39795	671.63629	-36.04249	1619.68860	597.32635	-26.01154	1522.98694	659.85901	-8.73528	1639.71948	525.98193	-11.97966	1637.37048	519.76831	114.72754	1721.30701	467.60397	-25.70865	1734.57275	425.34198	-29.83077	0.00000	0.00000	0.00000	0.00000	0.00000	0.00000	1859.80115	146.44585	25.08958	1829.12170	142.23187	113.63763	1923.27087	139.90956	95.14080	1727.40222	49.12619	100.38332	1707.17041	61.59718	43.83691	1765.47070	50.20061	-14.81366
1034	4.13200	1647.67175	1035.61353	166.79305	1445.37244	995.94659	242.03726	1466.27734	724.38452	318.23199	1435.85608	651.29346	298.28021	1410.81299	584.25079	290.91360	0.00000	0.00000	0.00000	1400.24268	537.29822	279.93594	1367.15491	534.94299	154.23497	1407.87183	401.81122	285.35657	1388.75903	358.82108	287.04294	1350.32349	422.42282	294.03391	1340.72302	377.76178	292.68240	1285.89026	102.19753	242.98886	1258.32617	121.59385	159.15150	1331.96350	66.10603	181.09865	1159.51392	80.22222	282.57724	1109.94495	129.20865	230.33488	1125.87952	99.51093	173.39566	1649.71277	1037.56580	107.32304	1460.24109	998.90613	1.82436	1573.37366	747.62915	-53.05091	1591.07886	671.16895	-35.73792	1612.78015	595.86438	-25.30999	1517.59790	659.47095	-8.51088	1632.06665	525.06952	-11.84218	1631.75317	519.06714	114.82495	1716.27673	467.82983	-25.56961	1729.75220	425.51556	-29.84791	0.00000	0.00000	0.00000	0.00000	0.00000	0.00000	1858.14880	148.07797	24.83269	1827.53259	143.53412	113.29340	1921.66040	142.45769	94.76908	1726.33545	49.56525	100.19997	1706.91565	61.55773	43.82734	1765.08667	50.31055	-14.90474
